<?xml version="1.0" encoding="iso-8859-1"?>
<!-- Generator: Adobe Illustrator 19.0.0, SVG Export Plug-In . SVG Version: 6.00 Build 0)  -->
<svg version="1.1" id="Layer_1" xmlns="http://www.w3.org/2000/svg" xmlns:xlink="http://www.w3.org/1999/xlink" x="0px" y="0px"
	 viewBox="0 0 512 512" style="enable-background:new 0 0 512 512;" xml:space="preserve">
<circle style="fill:#F07057;" cx="200.789" cy="205.24" r="190.437"/>
<rect x="98.661" y="151.474" style="fill:#E8E8E8;" width="205.571" height="159.755"/>
<polygon style="fill:#F07057;" points="268.396,83.138 135.658,83.138 98.656,151.472 304.224,151.472 "/>
<rect x="173.244" y="228.997" style="fill:#84B3D2;" width="56.385" height="82.233"/>
<path d="M200.791,4.448C90.074,4.448,0,94.523,0,205.239s90.074,200.79,200.791,200.79c110.716,0,200.791-90.074,200.791-200.79
	S311.507,4.448,200.791,4.448z M200.791,385.325c-99.301,0-180.088-80.787-180.088-180.086c0-99.301,80.787-180.088,180.088-180.088
	s180.088,80.787,180.088,180.088C380.878,304.538,300.091,385.325,200.791,385.325z"/>
<path d="M508.968,489.88L405.442,386.355c-4.043-4.041-10.596-4.041-14.64,0c-4.042,4.042-4.042,10.597,0,14.64L494.328,504.52
	c2.022,2.021,4.671,3.032,7.32,3.032s5.298-1.011,7.32-3.032C513.01,500.477,513.01,493.923,508.968,489.88z"/>
<path d="M373.045,354.265c-4.043-4.041-10.596-4.041-14.64,0c-4.042,4.042-4.042,10.597,0,14.64l6.212,6.212
	c2.022,2.021,4.671,3.032,7.32,3.032c2.649,0,5.298-1.011,7.32-3.032c4.042-4.042,4.042-10.597,0-14.64L373.045,354.265z"/>
<path d="M313.391,146.666l-0.055-0.105c-0.006-0.011-0.011-0.023-0.018-0.034l-35.754-68.196c-1.788-3.409-5.319-5.544-9.167-5.544
	H135.659c-3.799,0-7.294,2.082-9.102,5.422l-36.981,68.295c-0.808,1.475-1.27,3.168-1.27,4.968v159.755
	c0,5.716,4.634,10.352,10.352,10.352h205.567c5.716,0,10.352-4.635,10.352-10.352V151.472c0-1.725-0.427-3.346-1.173-4.776
	C313.397,146.685,313.396,146.676,313.391,146.666z M141.824,93.49h120.311l24.972,47.632H116.033L141.824,93.49z M219.28,300.876
	h-35.681v-61.524h35.681L219.28,300.876L219.28,300.876z M293.872,300.876h-53.888V229c0-5.716-4.634-10.352-10.352-10.352h-56.384
	c-5.717,0-10.352,4.635-10.352,10.352v71.876h-53.889V161.823h184.864V300.876z"/>
<g>
</g>
<g>
</g>
<g>
</g>
<g>
</g>
<g>
</g>
<g>
</g>
<g>
</g>
<g>
</g>
<g>
</g>
<g>
</g>
<g>
</g>
<g>
</g>
<g>
</g>
<g>
</g>
<g>
</g>
</svg>
