<?xml version="1.0" encoding="iso-8859-1"?>
<!-- Generator: Adobe Illustrator 19.0.0, SVG Export Plug-In . SVG Version: 6.00 Build 0)  -->
<svg version="1.1" id="Layer_1" xmlns="http://www.w3.org/2000/svg" xmlns:xlink="http://www.w3.org/1999/xlink" x="0px" y="0px"
	 viewBox="0 0 512.001 512.001" style="enable-background:new 0 0 512.001 512.001;" xml:space="preserve">
<path style="fill:#4DA3FF;" d="M375.456,138.476v239.887c0,11.06,8.965,20.025,20.025,20.025h88.939
	c11.06,0,20.025-8.965,20.025-20.025V138.476H375.456z"/>
<rect x="375.452" y="138.476" style="opacity:0.3;fill:#333333;enable-background:new    ;" width="128.992" height="20.143"/>
<rect x="375.452" y="67.862" style="fill:#8AE6A1;" width="128.992" height="70.613"/>
<path style="fill:#4DA3FF;" d="M211.775,210.796h-65.719c-32.591,0-59.107-26.515-59.107-59.107s26.515-59.107,59.107-59.107h65.719
	c32.591,0,59.106,26.515,59.106,59.107S244.366,210.796,211.775,210.796z M146.056,129.737c-12.105,0-21.952,9.848-21.952,21.952
	c0,12.104,9.848,21.952,21.952,21.952h65.719c12.105,0,21.952-9.848,21.952-21.952c0-12.104-9.848-21.952-21.952-21.952
	C211.775,129.737,146.056,129.737,146.056,129.737z"/>
<path style="opacity:0.15;fill:#333333;enable-background:new    ;" d="M233.727,151.688c0,12.105-9.847,21.952-21.952,21.952
	h-65.718c-12.105,0-21.952-9.847-21.952-21.952c0-5.013,1.693-9.636,4.532-13.336H88.486c-0.993,4.288-1.536,8.749-1.536,13.336
	c0,32.591,26.515,59.107,59.107,59.107h65.718c32.591,0,59.106-26.515,59.106-59.107c0-4.587-0.543-9.046-1.536-13.336h-40.15
	C232.034,142.053,233.727,146.676,233.727,151.688z"/>
<path style="fill:#FFCA66;" d="M27.312,398.388H330.52c10.912,0,19.758-8.845,19.758-19.758V178.255
	c0-10.912-8.845-19.758-19.758-19.758H27.312c-10.912,0-19.758,8.845-19.758,19.758V378.63
	C7.554,389.542,16.4,398.388,27.312,398.388z"/>
<path style="fill:#FF8095;" d="M294.058,200.959H63.774c-7.598,0-13.757,6.16-13.757,13.757v127.451
	c0,7.598,6.16,13.757,13.757,13.757h230.283c7.598,0,13.757-6.16,13.757-13.757V214.717
	C307.815,207.119,301.655,200.959,294.058,200.959z"/>
<g>
	<path style="opacity:0.15;fill:#333333;enable-background:new    ;" d="M401.476,378.363V138.476h-26.019v239.887
		c0,11.06,8.965,20.025,20.025,20.025h26.019C410.442,398.388,401.476,389.422,401.476,378.363z"/>
	<rect x="375.452" y="67.862" style="opacity:0.15;fill:#333333;enable-background:new    ;" width="26.019" height="70.613"/>
</g>
<path style="fill:#8AE6A1;" d="M329.29,270.278c-3.758,9.558-1.78,20.849,5.946,28.574c7.725,7.725,19.017,9.704,28.574,5.946
	c3.758-9.558,1.78-20.849-5.946-28.574C350.139,268.499,338.848,266.52,329.29,270.278z"/>
<circle style="fill:#D9576D;" cx="360.35" cy="374.518" r="69.625"/>
<path style="opacity:0.15;fill:#333333;enable-background:new    ;" d="M314.623,374.519c0-34.374,24.919-62.91,57.673-68.579
	c-3.884-0.672-7.872-1.043-11.948-1.043c-38.451,0-69.621,31.171-69.621,69.621c0,38.451,31.17,69.621,69.621,69.621
	c4.076,0,8.064-0.371,11.948-1.042C339.542,437.429,314.623,408.893,314.623,374.519z"/>
<path style="fill:#26150C;" d="M504.447,60.308H375.456c-4.172,0-7.554,3.381-7.554,7.554v70.614c0,0.002,0,0.003,0,0.005v138.265
	c-1.328-2.093-2.896-4.061-4.696-5.862c-1.659-1.66-3.461-3.123-5.375-4.388v-88.241c0-15.059-12.251-27.311-27.312-27.311h-52.103
	c-0.402-36.413-30.135-65.916-66.641-65.916h-65.719c-36.508,0-66.24,29.502-66.642,65.916H27.312
	C12.252,150.943,0,163.194,0,178.253v200.376c0,15.059,12.252,27.312,27.312,27.312h262.576
	c12.058,26.933,39.095,45.752,70.461,45.752s58.404-18.82,70.462-45.752h53.61c15.207,0,27.579-12.372,27.579-27.579V138.48
	c0-0.002,0-0.003,0-0.005V67.861C512,63.689,508.619,60.308,504.447,60.308z M345.706,277.23c2.542,0.941,4.889,2.408,6.817,4.335
	c4.537,4.538,6.432,10.985,5.227,17.142c-0.303,0.059-0.606,0.115-0.911,0.159c-0.082,0.012-0.164,0.024-0.245,0.036
	c-5.782,0.784-11.851-1.253-15.989-5.368c-4.447-4.422-6.467-11.04-5.254-17.189c0.082-0.016,0.167-0.023,0.25-0.038
	C338.984,275.693,342.5,276.043,345.706,277.23z M146.057,100.135h65.719c28.178,0,51.149,22.724,51.547,50.808h-22.052
	c-0.397-15.926-13.476-28.76-29.496-28.76h-65.719c-16.02,0-29.1,12.834-29.497,28.76H94.508
	C94.908,122.858,117.878,100.135,146.057,100.135z M226.136,150.943h-94.44c0.392-7.591,6.673-13.653,14.362-13.653h65.719
	C219.463,137.29,225.744,143.352,226.136,150.943z M27.312,390.834c-6.73,0-12.205-5.475-12.205-12.205V178.253
	c0-6.729,5.475-12.204,12.205-12.204h60.042h37.837h107.451h37.836h60.043c6.73,0,12.205,5.475,12.205,12.204v82.824
	c-1.212-0.129-2.436-0.2-3.671-0.2c-0.127,0-0.255,0.007-0.382,0.008c-0.089,0.001-0.177,0.004-0.267,0.006
	c-4.886,0.09-11.246,0.731-14.69,4.618c-1.635,1.846-2.465,4.267-2.999,6.675c-2.302,10.376,0.395,21.818,7.285,29.937
	c0.257,0.303,0.53,0.594,0.799,0.889c0.228,0.251,0.442,0.511,0.679,0.755c-0.373,0.161-0.737,0.337-1.106,0.504
	c-4.561,2.068-8.929,4.578-13.001,7.495v-97.051c0-11.751-9.56-21.311-21.312-21.311H63.775c-11.751,0-21.311,9.56-21.311,21.311
	v127.451c0,11.751,9.56,21.312,21.311,21.312h220.191c-0.007,0.052-0.014,0.105-0.02,0.157c-1.17,8.858-0.97,17.929,0.862,26.686
	c0.035,0.17,0.059,0.342,0.097,0.512H27.312V390.834z M296.708,330.809c-1.17,1.705-2.272,3.456-3.301,5.248
	c-2.059,3.586-3.833,7.339-5.288,11.21c-0.137,0.363-0.269,0.73-0.404,1.104H63.775c-3.421,0-6.203-2.784-6.203-6.204V214.717
	c0-3.421,2.782-6.203,6.203-6.203h230.283c3.421,0,6.204,2.782,6.204,6.203v111.325c0,0.43-1.349,1.717-1.659,2.13
	c-0.617,0.823-1.218,1.658-1.802,2.504C296.77,330.72,296.739,330.764,296.708,330.809z M422.263,377.512
	c-0.889,16.934-8.703,33.299-21.98,44.485c-11.124,9.371-25.387,14.589-39.934,14.589c-21.849,0-42.492-11.893-53.553-30.721
	c-10.611-18.058-11.231-41.071-1.658-59.71c7.5-14.603,21.007-25.994,36.684-30.865c0.612-0.189,1.227-0.372,1.847-0.543
	c0.266-0.073,0.532-0.144,0.8-0.215c0.628-0.165,1.258-0.32,1.895-0.466c0.267-0.062,0.535-0.12,0.804-0.178
	c0.333-0.072,0.67-0.134,1.006-0.2c1.922,0.331,3.885,0.511,5.877,0.511c3.534,0,7.002-0.545,10.341-1.605
	c3.146,0.201,6.221,0.638,9.215,1.283c0.073,0.018,0.143,0.043,0.218,0.058c21.172,4.627,38.718,20.852,45.492,41.363
	C421.712,362.552,422.653,370.087,422.263,377.512z M496.893,378.363c0,6.878-5.595,12.471-12.471,12.471h-48.626
	c0.036-0.17,0.061-0.342,0.096-0.512c2.741-13.153,1.987-26.999-2.158-39.78c-3.342-10.303-8.884-19.857-16.154-27.885
	c-7.249-8.003-16.181-14.447-26.069-18.787c-0.771-0.339-8.499-2.925-8.499-3.146V146.029h113.882V378.363z M496.893,130.922H383.01
	V75.415h113.882V130.922z"/>
<g>
</g>
<g>
</g>
<g>
</g>
<g>
</g>
<g>
</g>
<g>
</g>
<g>
</g>
<g>
</g>
<g>
</g>
<g>
</g>
<g>
</g>
<g>
</g>
<g>
</g>
<g>
</g>
<g>
</g>
</svg>
